<svg width="49" height="34" viewBox="0 0 49 34" fill="none" xmlns="http://www.w3.org/2000/svg">
<path d="M44.5007 1.05469H4.81327C2.73477 1.05469 1.0498 2.73965 1.0498 4.81815V29.4517C1.0498 31.5302 2.73477 33.2152 4.81327 33.2152H44.5007C46.5792 33.2152 48.2642 31.5302 48.2642 29.4517V4.81815C48.2642 2.73965 46.5792 1.05469 44.5007 1.05469Z" fill="white" stroke="#D9D9D9" stroke-width="0.713022"/>
<path fill-rule="evenodd" clip-rule="evenodd" d="M13.8202 12.1311C13.4182 12.6127 12.7749 12.9925 12.1316 12.9383C12.0512 12.2871 12.3662 11.5953 12.7347 11.1679C13.1368 10.6728 13.8403 10.3201 14.4099 10.293C14.4769 10.9713 14.2156 11.636 13.8202 12.1311ZM14.4031 13.0671C13.8364 13.0341 13.3193 13.2397 12.9016 13.4057C12.6329 13.5125 12.4053 13.603 12.2321 13.603C12.0378 13.603 11.8008 13.5077 11.5347 13.4007C11.186 13.2605 10.7873 13.1002 10.3693 13.1078C9.41113 13.1214 8.51994 13.6708 8.03076 14.5458C7.02567 16.2958 7.76944 18.8869 8.74103 20.3112C9.2168 21.0167 9.78638 21.7899 10.5368 21.7628C10.867 21.7502 11.1045 21.6482 11.3503 21.5426C11.6333 21.4211 11.9272 21.2947 12.3863 21.2947C12.8293 21.2947 13.1104 21.4177 13.3803 21.5358C13.6368 21.648 13.8832 21.7558 14.249 21.7492C15.0263 21.7356 15.5155 21.0438 15.9912 20.3384C16.5046 19.5813 16.7302 18.8424 16.7645 18.7302L16.7685 18.7172C16.7685 18.7172 16.7613 18.7135 16.7501 18.7083C16.5785 18.6288 15.2667 18.0209 15.2541 16.3907C15.2415 15.0225 16.2946 14.3293 16.4604 14.2201C16.4704 14.2135 16.4773 14.209 16.4804 14.2067C15.8103 13.2028 14.765 13.0943 14.4031 13.0671ZM19.7839 21.6746V11.1001H23.7037C25.7274 11.1001 27.1412 12.5109 27.1412 14.5729C27.1412 16.635 25.7006 18.0593 23.6502 18.0593H21.4054V21.6746H19.7839ZM21.4053 12.4839H23.2748C24.6819 12.4839 25.486 13.2435 25.486 14.5798C25.486 15.9159 24.6819 16.6824 23.2681 16.6824H21.4053V12.4839ZM32.4951 20.4062C32.0663 21.2337 31.1215 21.756 30.103 21.756C28.5953 21.756 27.5433 20.8471 27.5433 19.477C27.5433 18.1204 28.5618 17.3404 30.4447 17.2251L32.4683 17.1029V16.5197C32.4683 15.6582 31.9121 15.1902 30.9205 15.1902C30.103 15.1902 29.5066 15.6175 29.386 16.2687H27.9253C27.9721 14.8986 29.2453 13.9014 30.9674 13.9014C32.8234 13.9014 34.0296 14.8849 34.0296 16.4111V21.6746H32.5287V20.4062H32.4951ZM30.5384 20.5012C29.674 20.5012 29.1246 20.0806 29.1246 19.4363C29.1246 18.7716 29.6539 18.3849 30.6657 18.3239L32.4682 18.2086V18.8054C32.4682 19.7958 31.6373 20.5012 30.5384 20.5012ZM39.0081 22.0884C38.3582 23.9401 37.6144 24.5505 36.0331 24.5505C35.9124 24.5505 35.5103 24.537 35.4165 24.5098V23.2415C35.517 23.255 35.765 23.2686 35.8923 23.2686C36.6093 23.2686 37.0113 22.9633 37.2593 22.1698L37.4066 21.7017L34.6594 14.0032H36.3547L38.2644 20.2502H38.2978L40.2076 14.0032H41.856L39.0081 22.0884Z" fill="#212121"/>
</svg>
