<svg width="48" height="34" viewBox="0 0 48 34" fill="none" xmlns="http://www.w3.org/2000/svg">
<path d="M44.4956 1.05469H3.26413C1.67013 1.05469 0.37793 2.34688 0.37793 3.94089V30.329C0.37793 31.923 1.67013 33.2152 3.26413 33.2152H44.4956C46.0896 33.2152 47.3818 31.923 47.3818 30.329V3.94089C47.3818 2.34688 46.0896 1.05469 44.4956 1.05469Z" fill="white" stroke="#D9D9D9" stroke-width="0.713022"/>
<path fill-rule="evenodd" clip-rule="evenodd" d="M15.6908 17.4017C15.6908 19.4156 17.2721 20.977 19.3071 20.977C19.8823 20.977 20.3751 20.8639 20.9826 20.5778V19.0047C20.4485 19.5394 19.9752 19.7551 19.3693 19.7551C18.0234 19.7551 17.068 18.7792 17.068 17.3917C17.068 16.0764 18.0535 15.0388 19.3071 15.0388C19.9445 15.0388 20.4271 15.2662 20.9826 15.8095V14.2373C20.3961 13.9398 19.9138 13.8164 19.3386 13.8164C17.3139 13.8164 15.6908 15.4096 15.6908 17.4017ZM12.2613 15.7378C12.2613 16.108 12.4966 16.3037 13.2986 16.6004C14.8188 17.1566 15.2693 17.6491 15.2693 18.7378C15.2693 20.064 14.295 20.9875 12.9064 20.9875C11.8894 20.9875 11.1498 20.587 10.5342 19.6831L11.3976 18.8517C11.7051 19.4466 12.2186 19.7656 12.8561 19.7656C13.4524 19.7656 13.8937 19.3543 13.8937 18.7992C13.8937 18.5115 13.76 18.2645 13.4929 18.0901C13.3587 18.0075 13.0924 17.8847 12.5691 17.6999C11.3139 17.2483 10.8836 16.765 10.8836 15.8212C10.8836 14.6999 11.8081 13.8581 13.0204 13.8581C13.7717 13.8581 14.4591 14.1149 15.0337 14.6175L14.3344 15.5331C13.9863 15.143 13.657 14.9783 13.2568 14.9783C12.6808 14.9783 12.2613 15.3063 12.2613 15.7378ZM8.69442 20.8227H10.0309V13.9714H8.69442V20.8227ZM5.96277 19.1181C5.54297 19.4974 4.99743 19.6629 4.13399 19.6629H3.77533V15.132H4.13399C4.99743 15.132 5.52153 15.2866 5.96277 15.6863C6.42493 16.0977 6.70287 16.7356 6.70287 17.3917C6.70287 18.0496 6.42493 18.7068 5.96277 19.1181ZM4.4016 13.9714H2.43994V20.8225H4.39128C5.42888 20.8225 6.17797 20.5779 6.83574 20.0315C7.61739 19.385 8.07954 18.4101 8.07954 17.4018C8.07954 15.3798 6.56893 13.9714 4.4016 13.9714ZM29.7519 13.9714L31.5788 18.5734L33.4296 13.9714H34.8782L31.9184 20.9985H31.1992L28.2918 13.9714H29.7519ZM35.4826 20.8226H39.2725V19.6627H36.8179V17.8133H39.1822V16.6528H36.8179V15.1322H39.2725V13.9712H35.4826V20.8226ZM41.4924 17.1255H41.8827C42.7364 17.1255 43.1888 16.7546 43.1888 16.0659C43.1888 15.3992 42.7364 15.0505 41.9039 15.0505H41.4924V17.1255ZM42.1393 13.9711C43.6804 13.9711 44.5639 14.7112 44.5639 15.9939C44.5639 17.0429 44.0096 17.7317 43.003 17.9363L45.16 20.8225H43.5165L41.6668 18.0702H41.4924V20.8225H40.1575V13.9711H42.1393Z" fill="#1D1D1B"/>
<path fill-rule="evenodd" clip-rule="evenodd" d="M28.1344 19.3821C29.219 17.686 28.7236 15.4328 27.0278 14.3483C25.3319 13.2637 23.0782 13.7588 21.9935 15.4549C20.9091 17.1505 21.4047 19.4045 23.1006 20.489C24.7964 21.5736 27.0499 21.0777 28.1344 19.3821Z" fill="url(#paint0_linear_34_1989)"/>
<defs>
<linearGradient id="paint0_linear_34_1989" x1="30.098" y1="16.3117" x2="23.9571" y2="12.3845" gradientUnits="userSpaceOnUse">
<stop stop-color="#F6A000"/>
<stop offset="0.623918" stop-color="#E47E02"/>
<stop offset="1" stop-color="#D36002"/>
</linearGradient>
</defs>
</svg>
