<svg width="48" height="33" viewBox="0 0 48 33" fill="none" xmlns="http://www.w3.org/2000/svg">
<path d="M47.3719 29.4585C47.3719 30.981 46.1377 32.2152 44.6153 32.2152H3.49485C1.97243 32.2153 0.738281 30.981 0.738281 29.4585V2.81135C0.738281 1.28893 1.97243 0.0546875 3.49485 0.0546875H44.6153C46.1378 0.0546875 47.3719 1.28893 47.3719 2.81135V29.4585Z" fill="#306FC5"/>
<path d="M7.52979 12.9257H8.92315L8.22665 11.1523L7.52979 12.9257Z" fill="white"/>
<path d="M14.9336 18.8828V19.7063H17.277V20.5931H14.9336V21.5434H17.5302L18.7335 20.2131L17.5936 18.8828H14.9336Z" fill="white"/>
<path d="M33.244 11.1523L32.4839 12.9257H33.9407L33.244 11.1523Z" fill="white"/>
<path d="M21.7117 22.0513V18.4414L20.0649 20.2149L21.7117 22.0513Z" fill="white"/>
<path d="M24.8232 19.4531C24.7598 19.0731 24.5063 18.8828 24.1261 18.8828H22.7964V20.0228H24.1898C24.5697 20.0229 24.8232 19.833 24.8232 19.4531Z" fill="white"/>
<path d="M29.2474 19.8954C29.3741 19.8319 29.4376 19.6417 29.4376 19.4521C29.501 19.199 29.3741 19.0721 29.2474 19.0087C29.1211 18.9453 28.9308 18.9453 28.7411 18.9453H27.4741V19.9588H28.741C28.9307 19.9588 29.121 19.9588 29.2474 19.8954Z" fill="white"/>
<path d="M38.3703 9.50781V10.2678L37.9906 9.50781H35.0142V10.2678L34.6341 9.50781H30.5808C29.8842 9.50781 29.3139 9.6346 28.8075 9.88789V9.50781H25.9577V9.5712V9.88789C25.6411 9.63469 25.2611 9.50781 24.7544 9.50781H14.5579L13.8609 11.0912L13.1644 9.50781H10.8845H9.93448V10.2678L9.61779 9.50781H9.5544H6.83116L5.56431 12.4843L4.10783 15.7143L4.08105 15.7778H4.10783H7.33785H7.37829L7.40124 15.7143L7.78141 14.7645H8.60469L8.98469 15.7778H12.6576V15.7143V15.0178L12.9745 15.7777H14.811L15.1275 15.0178V15.7143V15.7778H16.5841H23.8674H23.9308V14.131H24.0578C24.1843 14.131 24.1843 14.131 24.1843 14.3211V15.7144H28.7443V15.3344C29.1243 15.5246 29.6939 15.7144 30.454 15.7144H32.3542L32.7342 14.7013H33.6206L34.0006 15.7144H37.6737V15.0812V14.7646L38.244 15.7144H38.3703H38.4339H41.2205V9.50781H38.3705H38.3703ZM16.901 14.828H16.2675H15.8876V14.4482V11.3446L15.8242 11.4898V11.4881L14.3509 14.828H14.3043H13.9656H13.4175L11.8976 11.3446V14.828H9.74449L9.30119 13.878H7.14767L6.70429 14.828H5.591L7.46454 10.3946H9.04771L10.821 14.6378V10.3946H11.2009H12.4989L12.5287 10.4581H12.5309L13.33 12.1972L13.9038 13.5002L13.9241 13.4345L15.1907 10.3947H16.9009V14.828H16.901ZM21.2711 11.3446H18.8011V12.1678H21.2077V13.0544H18.8011V13.9414H21.2711V14.8911H17.7245V10.3947H21.2711V11.3446ZM25.7883 12.9776C25.7899 12.9791 25.792 12.9801 25.794 12.9815C25.818 13.0068 25.8384 13.0322 25.8559 13.0565C25.9773 13.2155 26.0753 13.4521 26.0803 13.7989C26.0806 13.8049 26.0809 13.8109 26.0813 13.8169C26.0813 13.8203 26.0819 13.8233 26.0819 13.8269C26.0819 13.8289 26.0817 13.8304 26.0817 13.8324C26.0832 13.8672 26.0841 13.9028 26.0841 13.9414V14.8281H25.1343V14.3212C25.1343 14.0679 25.1343 13.6878 24.944 13.4345C24.8842 13.3747 24.8236 13.3352 24.7577 13.3072C24.6628 13.2457 24.4829 13.2447 24.1843 13.2447H23.044V14.8281H21.9676V10.3947H24.3744C24.944 10.3947 25.3242 10.3947 25.641 10.5847C25.9513 10.771 26.1387 11.0801 26.1458 11.5694C26.1312 12.2434 25.6985 12.6132 25.3875 12.7379C25.3875 12.7379 25.5988 12.7805 25.7883 12.9776ZM27.9209 14.828H26.8442V10.3946H27.9209V14.828ZM40.2708 14.828H38.8773L36.8507 11.4712V14.2578L36.8441 14.2512V14.8307H35.7741V14.8281H34.6974L34.3174 13.8781H32.1006L31.7206 14.8912H30.5173C30.011 14.8912 29.3772 14.7647 28.9974 14.3847C28.6174 14.0047 28.4276 13.498 28.4276 12.6748C28.4276 12.0415 28.5541 11.4078 28.9974 10.9013C29.3138 10.521 29.8841 10.3947 30.5806 10.3947H31.5941V11.3446H30.5806C30.2006 11.3446 30.011 11.4077 29.7571 11.598C29.5675 11.7879 29.4407 12.1678 29.4407 12.6111C29.4407 13.1179 29.5041 13.4345 29.7571 13.6878C29.9476 13.8781 30.2007 13.9415 30.5173 13.9415H30.9606L32.4171 10.4582H33.0507H34.0005L35.774 14.7014V14.485V13.0546V12.9281V10.4583H37.3572L39.1935 13.5615V10.4583H40.2706V14.8281H40.2708V14.828Z" fill="white"/>
<path d="M24.8857 12.2403C24.9042 12.2205 24.921 12.1981 24.9352 12.1724C24.9926 12.0816 25.0583 11.918 25.0229 11.6948C25.0214 11.6743 25.0177 11.6553 25.0133 11.637C25.0122 11.6319 25.0123 11.6275 25.011 11.6224L25.0103 11.6225C24.9788 11.514 24.8984 11.4473 24.8181 11.4069C24.6912 11.3438 24.5012 11.3438 24.3113 11.3438H23.0444V12.3572H24.3113C24.5012 12.3572 24.6913 12.3572 24.8181 12.2937C24.8372 12.2841 24.8541 12.271 24.8704 12.2561L24.8706 12.2569C24.8706 12.2569 24.8772 12.2501 24.8857 12.2403Z" fill="white"/>
<path d="M44.0047 21.1655C44.0047 20.7222 43.8782 20.2788 43.6883 19.9622V17.1123H43.6854V16.9221C43.6854 16.9221 41.0308 16.9221 40.6357 16.9221C40.2408 16.9221 39.7615 17.302 39.7615 17.302V16.9221H36.8484C36.4048 16.9221 35.8352 17.0488 35.5815 17.302V16.9221H30.3885V17.1123V17.3019C30.0087 16.9854 29.3115 16.922 28.9951 16.922H25.5751V17.1122V17.3018C25.2585 16.9854 24.4981 16.9219 24.118 16.9219H20.3186L19.4317 17.8719L18.6084 16.9219H18.3432H17.9118H12.9087V17.1121V17.6125V23.3188H18.4819L19.3977 22.4028L20.1915 23.3188H20.255H23.4664H23.6119H23.6753H23.7383V22.6855V21.8622H24.0552C24.4981 21.8622 25.0684 21.8622 25.5117 21.6719V23.2551V23.3821H28.3617V23.2551V21.7353H28.488C28.6783 21.7353 28.6783 21.7353 28.6783 21.9253V23.2551V23.3821H37.2912C37.8617 23.3821 38.4313 23.2551 38.7479 23.0018V23.2551V23.3821H41.4714C42.041 23.3821 42.6115 23.3188 42.9914 23.0653C43.5746 22.7155 43.9421 22.0962 43.9967 21.3576C43.9993 21.3358 44.0024 21.3139 44.0045 21.292L44.0007 21.2884C44.0031 21.2474 44.0047 21.2069 44.0047 21.1655ZM24.0553 20.7856H22.7884V20.9752V21.3553V21.7354V22.4321H20.7067L19.4951 21.0387L19.4909 21.0433L19.4317 20.9752L18.0385 22.4321H13.9853V17.9989H18.1019L19.2265 19.2308L19.463 19.4887L19.495 19.4555L20.8252 17.999H24.1817C24.8331 17.999 25.5626 18.1598 25.839 18.8226C25.8723 18.9538 25.8916 19.0997 25.8916 19.2655C25.8916 20.5321 25.0049 20.7856 24.0553 20.7856ZM30.3885 20.7221C30.515 20.9117 30.5784 21.1654 30.5784 21.5456V22.432H29.5019V21.8622C29.5019 21.6085 29.5019 21.1654 29.3116 20.9752C29.1853 20.7856 28.9316 20.7856 28.5519 20.7856H27.412V22.4321H26.3354V17.9355H28.7419C29.2482 17.9355 29.6915 17.9355 30.0087 18.1253C30.3251 18.3155 30.5784 18.6322 30.5784 19.1389C30.5784 19.8354 30.1352 20.2154 29.8185 20.3422C30.1352 20.4684 30.3251 20.5955 30.3885 20.7221ZM34.7585 18.8851H32.2882V19.7085H34.695V20.5954H32.2882V21.4821H34.7585V22.432H31.2119V17.9354H34.7585V18.8851ZM37.4183 22.4321H35.3915V21.4822H37.4183C37.6079 21.4822 37.7349 21.4822 37.8618 21.3554C37.9252 21.292 37.9882 21.1655 37.9882 21.0387C37.9882 20.9118 37.9252 20.7857 37.8618 20.7222C37.7983 20.6589 37.6714 20.5955 37.4815 20.5955C36.4681 20.5322 35.2648 20.5955 35.2648 19.2024C35.2648 18.569 35.6448 17.8722 36.7849 17.8722H38.8748V18.9487H36.9116C36.7217 18.9487 36.5948 18.9487 36.468 19.0121C36.3417 19.0756 36.3417 19.2024 36.3417 19.3289C36.3417 19.519 36.468 19.5824 36.5947 19.6452C36.7217 19.7087 36.8482 19.7087 36.9747 19.7087H37.5448C38.1149 19.7087 38.4948 19.8354 38.7481 20.0888C38.9382 20.2789 39.0648 20.5955 39.0648 21.0387C39.0648 21.9885 38.4949 22.4321 37.4183 22.4321ZM42.8648 21.9884C42.6118 22.2421 42.1683 22.4321 41.5347 22.4321H39.5085V21.4822H41.5346C41.7247 21.4822 41.8517 21.4822 41.9782 21.3554C42.0413 21.292 42.1049 21.1655 42.1049 21.0387C42.1049 20.9118 42.0413 20.7857 41.9782 20.7222C41.9148 20.6589 41.7883 20.5955 41.5982 20.5955C40.5852 20.5322 39.3815 20.5955 39.3815 19.2025C39.3815 18.6005 39.7259 18.0567 40.5752 17.8953C40.6768 17.8812 40.7841 17.8722 40.9016 17.8722H42.9917V18.9487H41.5982H41.0917H41.0283C40.8382 18.9487 40.7117 18.9487 40.5852 19.0121C40.5214 19.0756 40.458 19.2024 40.458 19.3289C40.458 19.519 40.5214 19.5824 40.7117 19.6452C40.8382 19.7087 40.9649 19.7087 41.0917 19.7087H41.1546H41.6615C41.9383 19.7087 42.1476 19.7428 42.3391 19.8102C42.5145 19.8736 43.0953 20.1334 43.2252 20.8115C43.2365 20.8825 43.2447 20.9567 43.2447 21.0387C43.2447 21.4188 43.118 21.7354 42.8648 21.9884Z" fill="white"/>
</svg>
