<svg width="49" height="34" viewBox="0 0 49 34" fill="none" xmlns="http://www.w3.org/2000/svg">
<path d="M44.4509 1.05469H4.76346C2.68496 1.05469 1 2.73965 1 4.81815V29.4517C1 31.5302 2.68496 33.2152 4.76346 33.2152H44.4509C46.5294 33.2152 48.2144 31.5302 48.2144 29.4517V4.81815C48.2144 2.73965 46.5294 1.05469 44.4509 1.05469Z" fill="white" stroke="#D9D9D9" stroke-width="0.713022"/>
<path fill-rule="evenodd" clip-rule="evenodd" d="M15.199 22.9573H12.2973L10.1213 14.6559C10.0181 14.2741 9.79878 13.9364 9.47622 13.7774C8.67118 13.3775 7.7841 13.0593 6.81641 12.8988V12.5792H11.4908C12.136 12.5792 12.6199 13.0593 12.7005 13.6169L13.8295 19.6049L16.7299 12.5792H19.5509L15.199 22.9573ZM21.1638 22.9573H18.4233L20.6799 12.5792H23.4203L21.1638 22.9573ZM26.9658 15.4542C27.0465 14.8953 27.5303 14.5757 28.0948 14.5757C28.9819 14.4954 29.9482 14.6559 30.7546 15.0544L31.2385 12.8199C30.432 12.5003 29.545 12.3398 28.74 12.3398C26.0801 12.3398 24.1447 13.7774 24.1447 15.7725C24.1447 17.2902 25.5156 18.0871 26.4834 18.5672C27.5303 19.0459 27.9335 19.3655 27.8529 19.8443C27.8529 20.5623 27.0465 20.882 26.2414 20.882C25.2737 20.882 24.306 20.6426 23.4203 20.2427L22.9365 22.4786C23.9042 22.877 24.9512 23.0375 25.9189 23.0375C28.9012 23.1164 30.7546 21.6802 30.7546 19.5246C30.7546 16.8101 26.9658 16.651 26.9658 15.4542ZM40.3455 22.9573L38.1695 12.5792H35.8323C35.3484 12.5792 34.8645 12.8988 34.7033 13.3775L30.674 22.9573H33.4951L34.0581 21.4409H37.5244L37.8469 22.9573H40.3455ZM36.2355 15.374L37.0405 19.2853H34.7839L36.2355 15.374Z" fill="#172B85"/>
</svg>
