<svg width="52" height="33" viewBox="0 0 52 33" fill="none" xmlns="http://www.w3.org/2000/svg">
<rect x="4.72217" y="7.80469" width="44.6485" height="19.366" fill="white"/>
<path fill-rule="evenodd" clip-rule="evenodd" d="M3.38815 0.183522C2.42955 0.488634 1.65207 1.18923 1.1706 2.1817L0.905273 2.7287V16.467V30.2053L1.2066 30.8279C1.541 31.5185 2.21361 32.2076 2.93419 32.5976L3.40729 32.8537H26.143H48.8788L49.4227 32.5818C50.1769 32.2048 50.9301 31.3905 51.2365 30.6205L51.4896 29.9846L51.5204 16.9636C51.5396 8.86107 51.511 3.67912 51.4449 3.24513C51.245 1.9353 50.5896 0.99469 49.4536 0.387555L48.8788 0.0803465L26.3606 0.0596011C8.05039 0.0427178 3.75758 0.0658909 3.38815 0.183522ZM10.5326 8.53035C9.66843 8.646 8.95133 8.87629 8.06105 9.32419C7.41205 9.65071 6.29005 10.5384 6.29005 10.7254C6.29005 10.8813 7.26824 12.1701 7.43631 12.2354C7.53095 12.2723 7.78115 12.1294 8.04451 11.8879C8.29069 11.6624 8.8655 11.2978 9.32196 11.0777C10.0727 10.7159 10.257 10.6738 11.2528 10.6361C13.4574 10.5529 14.8707 11.3719 15.7288 13.2299C15.9963 13.8092 16.0262 13.9958 16.0262 15.0877C16.0262 16.1917 15.9979 16.3636 15.7135 16.9881C15.3062 17.8827 14.4974 18.665 13.6302 19.0037C12.7541 19.3458 11.4532 19.3626 10.7446 19.0409C9.57923 18.5119 8.9633 17.622 8.9633 16.467C8.9633 15.6771 9.18739 15.1169 9.7745 14.4385L10.1029 14.0591L9.57434 13.3595C9.28367 12.9748 8.94807 12.6452 8.82873 12.6272C8.68666 12.6057 8.4605 12.7608 8.17451 13.0756C7.1898 14.1592 6.76696 15.3755 6.86563 16.8405C7.01064 18.9946 8.65555 20.7797 10.95 21.273C11.8748 21.4719 12.2734 21.471 13.3242 21.2679C14.917 20.9601 16.2705 20.0765 17.095 18.8063C18.522 16.608 18.5696 13.8859 17.2222 11.5433C15.9846 9.39162 13.2618 8.16521 10.5326 8.53035ZM21.3557 9.32199C21.3231 9.45849 21.3099 12.0779 21.3264 15.1428L21.3566 20.7154H22.2812H23.2059L23.2358 18.987L23.2657 17.2588L24.9763 17.2215C26.558 17.187 26.7333 17.1622 27.3014 16.8921C28.8557 16.1529 29.7156 14.4296 29.4565 12.5733C29.2721 11.2523 28.6542 10.2623 27.6367 9.65745C26.8334 9.17975 26.1349 9.07735 23.6703 9.07547C21.4211 9.07371 21.415 9.07437 21.3557 9.32199ZM23.2603 13.2226V15.6059L24.7197 15.5675C26.1379 15.5302 26.1921 15.5197 26.6422 15.198C27.836 14.3447 27.9633 12.3864 26.891 11.3705C26.4126 10.9171 26.0789 10.8393 24.613 10.8393H23.2603V13.2226ZM32.4762 12.946C31.5995 13.1554 30.9026 13.6761 30.5388 14.3936C30.4246 14.6188 30.3312 14.9043 30.3312 15.0281C30.3312 15.2353 30.398 15.2531 31.1743 15.2525C31.9937 15.2519 32.0225 15.2427 32.2 14.9262C32.6653 14.0966 34.5011 14.0312 35.049 14.8247C35.1466 14.966 35.2265 15.2633 35.2265 15.4856C35.2265 15.9718 35.1057 16.0219 33.93 16.0241C31.5323 16.0286 30.195 16.8366 30.0385 18.3756C29.9171 19.5682 30.5191 20.4789 31.6548 20.821C32.6961 21.1347 33.9328 20.9778 34.6661 20.4389C35.1287 20.099 35.2265 20.1119 35.2265 20.5131C35.2265 20.7615 35.2572 20.7706 36.103 20.7706H36.9796L36.9461 17.7084C36.9139 14.767 36.9028 14.6277 36.6649 14.1759C36.3509 13.5797 35.6962 13.0957 34.998 12.9438C34.3598 12.805 33.0618 12.8061 32.4762 12.946ZM38.2395 13.129C38.2144 13.1745 38.8735 14.9746 39.7043 17.1291C41.3714 21.4525 41.3699 21.4451 40.7486 22.163C40.3151 22.6637 40.0153 22.7786 39.1699 22.768L38.49 22.7595V23.5268C38.49 24.4862 38.6116 24.5811 39.7217 24.4867C41.0035 24.3776 41.9624 23.7512 42.5008 22.671C42.7914 22.088 45.996 13.41 45.996 13.2061C45.996 13.0657 45.8457 13.0427 45.1017 13.0694L44.2074 13.1014L43.2945 15.9429C42.73 17.6996 42.3283 18.7843 42.242 18.7843C42.103 18.7843 41.8174 18.0881 40.601 14.7842L39.961 13.0462H39.1232C38.6623 13.0462 38.2647 13.0835 38.2395 13.129ZM33.8667 17.3517C33.2684 17.3943 32.6564 17.4801 32.5069 17.5424C31.6321 17.9063 31.5352 18.9946 32.3429 19.3835C33.1439 19.769 34.438 19.4589 34.9388 18.7613C35.2071 18.3876 35.3341 17.2301 35.104 17.2568C35.0217 17.2663 34.465 17.309 33.8667 17.3517Z" fill="#5A31F5"/>
</svg>
