<svg width="48" height="34" viewBox="0 0 48 34" fill="none" xmlns="http://www.w3.org/2000/svg">
<path d="M44.0018 1.05469H3.27016C1.69548 1.05469 0.418945 2.33122 0.418945 3.9059V29.9742C0.418945 31.5489 1.69548 32.8254 3.27016 32.8254H44.0018C45.5765 32.8254 46.853 31.5489 46.853 29.9742V3.9059C46.853 2.33122 45.5765 1.05469 44.0018 1.05469Z" fill="white" stroke="#D9D9D9" stroke-width="0.713022"/>
<path fill-rule="evenodd" clip-rule="evenodd" d="M21.5485 17.1508L21.7542 15.8404L21.2959 15.8298H19.1079L20.6285 6.16043C20.6332 6.13115 20.6485 6.10397 20.6709 6.08463C20.6934 6.06529 20.722 6.05469 20.752 6.05469H24.4415C25.6664 6.05469 26.5116 6.31025 26.9529 6.81475C27.1598 7.05142 27.2916 7.2988 27.3553 7.57095C27.4222 7.85656 27.4234 8.19775 27.3581 8.61397L27.3534 8.64424V8.911L27.5603 9.02855C27.7345 9.12125 27.873 9.22732 27.9792 9.3487C28.1561 9.55113 28.2706 9.8084 28.319 10.1132C28.369 10.4268 28.3524 10.8 28.2706 11.2225C28.1762 11.7084 28.0236 12.1317 27.8175 12.478C27.6279 12.7971 27.3865 13.0619 27.0996 13.2669C26.8259 13.4619 26.5006 13.6098 26.1329 13.7045C25.7764 13.7975 25.3702 13.8444 24.9245 13.8444H24.6373C24.4321 13.8444 24.2327 13.9186 24.0761 14.0515C23.9191 14.1872 23.8154 14.3726 23.7835 14.5753L23.7618 14.6933L23.3983 17.0029L23.3819 17.0876C23.3775 17.1145 23.37 17.1279 23.359 17.1369C23.3492 17.1452 23.3351 17.1508 23.3213 17.1508H21.5485Z" fill="#28356A"/>
<path fill-rule="evenodd" clip-rule="evenodd" d="M27.754 8.66797C27.7431 8.73857 27.7304 8.81068 27.7163 8.8849C27.2298 11.3901 25.5651 12.2556 23.4392 12.2556H22.3567C22.0967 12.2556 21.8775 12.4448 21.8371 12.702L21.126 17.2261C21.0996 17.395 21.2294 17.5471 21.3993 17.5471H23.3192C23.5465 17.5471 23.7396 17.3815 23.7755 17.1567L23.7943 17.0589L24.1557 14.7584L24.179 14.6322C24.2144 14.4066 24.408 14.2409 24.6352 14.2409H24.9224C26.7824 14.2409 28.2386 13.4836 28.6642 11.2919C28.8419 10.3763 28.7499 9.61188 28.2795 9.07422C28.1372 8.91219 27.9606 8.77757 27.754 8.66797Z" fill="#298FC2"/>
<path fill-rule="evenodd" clip-rule="evenodd" d="M27.2478 8.46419C27.1734 8.44243 27.0968 8.42276 27.0181 8.40497C26.939 8.38762 26.858 8.37227 26.7746 8.35879C26.4828 8.3115 26.1629 8.28906 25.8204 8.28906H22.9286C22.8573 8.28906 22.7897 8.3052 22.7292 8.33436C22.5957 8.39867 22.4967 8.5253 22.4727 8.68031L21.8575 12.5879L21.8398 12.7018C21.8803 12.4446 22.0995 12.2553 22.3594 12.2553H23.4419C25.5679 12.2553 27.2325 11.3894 27.7191 8.88458C27.7336 8.81044 27.7458 8.73832 27.7567 8.66771C27.6336 8.60219 27.5003 8.54618 27.3568 8.49845C27.3213 8.48662 27.2847 8.47524 27.2478 8.46419Z" fill="#22284F"/>
<path fill-rule="evenodd" clip-rule="evenodd" d="M22.473 8.67755C22.497 8.52254 22.596 8.39592 22.7294 8.33205C22.7903 8.30277 22.8575 8.28664 22.9288 8.28664H25.8206C26.1632 8.28664 26.483 8.30918 26.7749 8.35647C26.8582 8.36984 26.9392 8.38531 27.0183 8.40266C27.097 8.42033 27.1736 8.44011 27.248 8.46177C27.2849 8.47282 27.3215 8.48431 27.3573 8.49569C27.5009 8.54342 27.6343 8.59988 27.7574 8.66496C27.9022 7.73916 27.7562 7.10882 27.2571 6.53803C26.7068 5.90956 25.7136 5.64062 24.4427 5.64062H20.7532C20.4936 5.64062 20.2722 5.8299 20.2321 6.08756L18.6953 15.8563C18.665 16.0495 18.8137 16.2239 19.0081 16.2239H21.2858L22.473 8.67755Z" fill="#28356A"/>
<path fill-rule="evenodd" clip-rule="evenodd" d="M10.6756 19.8086H7.98561C7.8015 19.8086 7.64494 19.9427 7.61619 20.125L6.5282 27.0425C6.50662 27.1792 6.61205 27.3021 6.7501 27.3021H8.0343C8.21836 27.3021 8.37494 27.1681 8.40369 26.9854L8.69712 25.1196C8.72539 24.937 8.88229 24.8029 9.06607 24.8029H9.91761C11.6896 24.8029 12.7122 23.9429 12.9794 22.2389C13.0997 21.4933 12.9845 20.9076 12.6363 20.4974C12.254 20.0469 11.5759 19.8086 10.6756 19.8086ZM10.9859 22.3352C10.8388 23.3031 10.1013 23.3031 9.38826 23.3031H8.98224L9.26704 21.4953C9.28399 21.386 9.37832 21.3056 9.48854 21.3056H9.6746C10.1604 21.3056 10.6186 21.3056 10.8553 21.5833C10.9966 21.7489 11.0398 21.9951 10.9859 22.3352Z" fill="#28356A"/>
<path fill-rule="evenodd" clip-rule="evenodd" d="M18.7881 22.2504H17.4999C17.3902 22.2504 17.2953 22.3309 17.2784 22.4402L17.2214 22.8015L17.1314 22.6706C16.8525 22.2646 16.2306 22.1289 15.61 22.1289C14.1864 22.1289 12.9707 23.2102 12.7338 24.7269C12.6108 25.4834 12.7857 26.2069 13.2137 26.7114C13.6063 27.1752 14.168 27.3685 14.8362 27.3685C15.9833 27.3685 16.6192 26.6289 16.6192 26.6289L16.5618 26.9879C16.5402 27.1251 16.6456 27.2482 16.7829 27.2482H17.9432C18.1277 27.2482 18.2835 27.1141 18.3126 26.9315L19.0088 22.51C19.0308 22.3739 18.9257 22.2504 18.7881 22.2504ZM16.9924 24.7648C16.8682 25.5027 16.2842 25.9982 15.5391 25.9982C15.1651 25.9982 14.8662 25.8778 14.6741 25.6499C14.4838 25.4235 14.4115 25.1013 14.4719 24.7422C14.5881 24.0105 15.182 23.4989 15.9156 23.4989C16.2814 23.4989 16.5787 23.6209 16.7747 23.8507C16.9708 24.083 17.0488 24.4074 16.9924 24.7648Z" fill="#28356A"/>
<path fill-rule="evenodd" clip-rule="evenodd" d="M25.5526 22.3594H24.258C24.1345 22.3594 24.0185 22.421 23.9486 22.5239L22.1631 25.1612L21.4063 22.6268C21.3588 22.4682 21.2129 22.3594 21.0476 22.3594H19.7757C19.621 22.3594 19.5137 22.5109 19.5628 22.6569L20.9887 26.8531L19.6482 28.7508C19.5428 28.9003 19.6489 29.1058 19.8311 29.1058H21.124C21.2467 29.1058 21.3615 29.0458 21.4312 28.945L25.7366 22.7124C25.8397 22.5634 25.7338 22.3594 25.5526 22.3594Z" fill="#28356A"/>
<path fill-rule="evenodd" clip-rule="evenodd" d="M29.8606 19.8086H27.1702C26.9865 19.8086 26.83 19.9427 26.8012 20.125L25.7133 27.0425C25.6917 27.1792 25.7971 27.3021 25.9344 27.3021H27.315C27.4431 27.3021 27.5529 27.2083 27.5729 27.0805L27.8817 25.1196C27.91 24.937 28.0671 24.8029 28.2507 24.8029H29.1019C30.8742 24.8029 31.8965 23.9429 32.164 22.2389C32.2847 21.4933 32.1687 20.9076 31.8206 20.4974C31.4386 20.0469 30.7609 19.8086 29.8606 19.8086ZM30.1709 22.3352C30.0242 23.3031 29.2867 23.3031 28.5732 23.3031H28.1678L28.4529 21.4953C28.4697 21.386 28.5633 21.3056 28.6739 21.3056H28.8599C29.3453 21.3056 29.8039 21.3056 30.0407 21.5833C30.1819 21.7489 30.2248 21.9951 30.1709 22.3352Z" fill="#298FC2"/>
<path fill-rule="evenodd" clip-rule="evenodd" d="M37.9714 22.2504H36.6839C36.5735 22.2504 36.4795 22.3309 36.4629 22.4402L36.4059 22.8015L36.3154 22.6706C36.0366 22.2646 35.4151 22.1289 34.7943 22.1289C33.3709 22.1289 32.1556 23.2102 31.9188 24.7269C31.7961 25.4834 31.9702 26.2069 32.3982 26.7114C32.7916 27.1752 33.3524 27.3685 34.0207 27.3685C35.1677 27.3685 35.8037 26.6289 35.8037 26.6289L35.7463 26.9879C35.7247 27.1251 35.83 27.2482 35.9681 27.2482H37.1281C37.3118 27.2482 37.4683 27.1141 37.497 26.9315L38.1936 22.51C38.2149 22.3739 38.1094 22.2504 37.9714 22.2504ZM36.1759 24.7648C36.0524 25.5027 35.4675 25.9982 34.7224 25.9982C34.3491 25.9982 34.0495 25.8778 33.8574 25.6499C33.6672 25.4235 33.5955 25.1013 33.6552 24.7422C33.7721 24.0105 34.3653 23.4989 35.0989 23.4989C35.4647 23.4989 35.762 23.6209 35.9579 23.8507C36.1549 24.083 36.2328 24.4074 36.1759 24.7648Z" fill="#298FC2"/>
<path fill-rule="evenodd" clip-rule="evenodd" d="M39.3891 19.9987L38.285 27.0429C38.2635 27.1795 38.3688 27.3024 38.5061 27.3024H39.6161C39.8006 27.3024 39.9571 27.1684 39.9853 26.9858L41.0741 20.0685C41.0959 19.932 40.9904 19.8086 40.8531 19.8086H39.6102C39.5005 19.8089 39.4061 19.8895 39.3891 19.9987Z" fill="#298FC2"/>
</svg>
