<svg width="49" height="34" viewBox="0 0 49 34" fill="none" xmlns="http://www.w3.org/2000/svg">
<path d="M45.0092 1.05469H3.7778C2.1838 1.05469 0.891602 2.34688 0.891602 3.94089V30.329C0.891602 31.923 2.1838 33.2152 3.7778 33.2152H45.0092C46.6032 33.2152 47.8954 31.923 47.8954 30.329V3.94089C47.8954 2.34688 46.6032 1.05469 45.0092 1.05469Z" fill="white" stroke="#D9D9D9" stroke-width="0.713022"/>
<path fill-rule="evenodd" clip-rule="evenodd" d="M17.9983 26.1227V27.3405V28.5584H17.4645V28.2627C17.2952 28.4821 17.0383 28.6197 16.6892 28.6197C16.0008 28.6197 15.4611 28.0848 15.4611 27.3405C15.4611 26.5969 16.0008 26.0614 16.6892 26.0614C17.0383 26.0614 17.2952 26.1991 17.4645 26.4184V26.1227H17.9983ZM16.7555 26.5607C16.2935 26.5607 16.0107 26.9125 16.0107 27.3405C16.0107 27.7687 16.2935 28.1204 16.7555 28.1204C17.197 28.1204 17.4951 27.7838 17.4951 27.3405C17.4951 26.8973 17.197 26.5607 16.7555 26.5607ZM36.0361 27.3405C36.0361 26.9125 36.3189 26.5607 36.7809 26.5607C37.223 26.5607 37.5204 26.8973 37.5204 27.3405C37.5204 27.7838 37.223 28.1204 36.7809 28.1204C36.3189 28.1204 36.0361 27.7687 36.0361 27.3405ZM38.0243 25.1445V27.3405V28.5584H37.4899V28.2627C37.3205 28.4821 37.0637 28.6197 36.7145 28.6197C36.0261 28.6197 35.4865 28.0848 35.4865 27.3405C35.4865 26.5969 36.0261 26.0614 36.7145 26.0614C37.0637 26.0614 37.3205 26.1991 37.4899 26.4184V25.1445H38.0243ZM24.6241 26.5357C24.9679 26.5357 25.1889 26.7497 25.2454 27.1265H23.9715C24.0285 26.7748 24.2437 26.5357 24.6241 26.5357ZM23.4119 27.3405C23.4119 26.5811 23.9151 26.0614 24.6346 26.0614C25.3224 26.0614 25.795 26.5811 25.8003 27.3405C25.8003 27.4117 25.795 27.4782 25.7898 27.5441H23.9668C24.0439 27.9827 24.3571 28.1408 24.701 28.1408C24.9473 28.1408 25.2096 28.0486 25.4153 27.8859L25.6769 28.2784C25.3788 28.5281 25.0403 28.6197 24.6705 28.6197C23.9357 28.6197 23.4119 28.1152 23.4119 27.3405ZM31.0799 27.3405C31.0799 26.9125 31.3627 26.5607 31.8247 26.5607C32.2661 26.5607 32.5643 26.8973 32.5643 27.3405C32.5643 27.7838 32.2661 28.1204 31.8247 28.1204C31.3627 28.1204 31.0799 27.7687 31.0799 27.3405ZM33.0674 26.1227V27.3405V28.5584H32.5337V28.2627C32.3638 28.4821 32.1075 28.6197 31.7583 28.6197C31.0699 28.6197 30.5302 28.0848 30.5302 27.3405C30.5302 26.5969 31.0699 26.0614 31.7583 26.0614C32.1075 26.0614 32.3638 26.1991 32.5337 26.4184V26.1227H33.0674ZM28.0653 27.3405C28.0653 28.0796 28.5839 28.6197 29.3751 28.6197C29.7448 28.6197 29.9912 28.538 30.2581 28.3292L30.0017 27.9011C29.8013 28.044 29.5908 28.1204 29.3593 28.1204C28.933 28.1152 28.6197 27.8095 28.6197 27.3405C28.6197 26.8716 28.933 26.5659 29.3593 26.5607C29.5908 26.5607 29.8013 26.6371 30.0017 26.78L30.2581 26.3519C29.9912 26.1431 29.7448 26.0614 29.3751 26.0614C28.5839 26.0614 28.0653 26.6016 28.0653 27.3405ZM34.3002 26.4184C34.4389 26.2043 34.6393 26.0614 34.9474 26.0614C35.0555 26.0614 35.2096 26.0819 35.3277 26.1279L35.1632 26.6272C35.0503 26.5811 34.9374 26.5659 34.8293 26.5659C34.48 26.5659 34.3055 26.7899 34.3055 27.193V28.5584H33.7711V26.1227H34.3002V26.4184ZM20.6384 26.3163C20.3814 26.1484 20.0276 26.0614 19.6372 26.0614C19.0153 26.0614 18.6149 26.3571 18.6149 26.8413C18.6149 27.2385 18.913 27.4834 19.4621 27.5599L19.7142 27.5954C20.007 27.6363 20.1452 27.7127 20.1452 27.8503C20.1452 28.0387 19.95 28.146 19.5855 28.146C19.2157 28.146 18.9489 28.0288 18.769 27.8911L18.5174 28.3035C18.8101 28.5176 19.1799 28.6197 19.5802 28.6197C20.2892 28.6197 20.7001 28.2883 20.7001 27.8247C20.7001 27.3965 20.3767 27.1725 19.8424 27.0962L19.5908 27.06C19.3598 27.0296 19.1746 26.9842 19.1746 26.8208C19.1746 26.6424 19.3492 26.5357 19.6419 26.5357C19.9553 26.5357 20.2586 26.6529 20.4073 26.7445L20.6384 26.3163ZM26.8791 26.4184C27.0172 26.2043 27.2177 26.0614 27.5257 26.0614C27.6339 26.0614 27.7879 26.0819 27.906 26.1279L27.7414 26.6272C27.6286 26.5811 27.5157 26.5659 27.4075 26.5659C27.0584 26.5659 26.8838 26.7899 26.8838 27.193V28.5584H26.35V26.1227H26.8791V26.4184ZM22.9704 26.1227H22.0974V25.3837H21.5578V26.1227H21.0599V26.6068H21.5578V27.718C21.5578 28.2832 21.7788 28.6197 22.4102 28.6197C22.6417 28.6197 22.9087 28.5485 23.078 28.4313L22.9239 27.9775C22.7646 28.0691 22.59 28.1152 22.4513 28.1152C22.1844 28.1152 22.0974 27.9518 22.0974 27.7074V26.6068H22.9704V26.1227ZM14.989 27.0296V28.5584H14.4494V27.2029C14.4494 26.7899 14.2748 26.5607 13.9103 26.5607C13.5558 26.5607 13.3095 26.7853 13.3095 27.2082V28.5584H12.7699V27.2029C12.7699 26.7899 12.5906 26.5607 12.2361 26.5607C11.871 26.5607 11.6348 26.7853 11.6348 27.2082V28.5584H11.0957V26.1227H11.6301V26.423C11.8305 26.1379 12.0868 26.0614 12.349 26.0614C12.724 26.0614 12.9909 26.2248 13.1602 26.4948C13.3865 26.1531 13.7099 26.0562 14.0232 26.0614C14.6193 26.0667 14.989 26.454 14.989 27.0296Z" fill="#231F20"/>
<path d="M28.5569 21.9762H20.4668V7.55078H28.5569V21.9762Z" fill="#FF5F00"/>
<path d="M20.9787 14.7641C20.9787 11.8378 22.3596 9.23117 24.51 7.55138C22.9375 6.32301 20.9528 5.58984 18.796 5.58984C13.6899 5.58984 9.55078 9.69725 9.55078 14.7641C9.55078 19.8309 13.6899 23.9383 18.796 23.9383C20.9528 23.9383 22.9375 23.2052 24.51 21.9768C22.3596 20.297 20.9787 17.6904 20.9787 14.7641Z" fill="#EB001B"/>
<path d="M39.4657 14.7641C39.4657 19.8309 35.3266 23.9383 30.2205 23.9383C28.0636 23.9383 26.079 23.2052 24.5059 21.9768C26.6568 20.297 28.0377 17.6904 28.0377 14.7641C28.0377 11.8378 26.6568 9.23117 24.5059 7.55138C26.079 6.32301 28.0636 5.58984 30.2205 5.58984C35.3266 5.58984 39.4657 9.69725 39.4657 14.7641Z" fill="#F79E1B"/>
</svg>
