<svg width="49" height="34" viewBox="0 0 49 34" fill="none" xmlns="http://www.w3.org/2000/svg">
<path d="M44.2395 1.05469H4.55204C2.47353 1.05469 0.788574 2.73965 0.788574 4.81815V29.4517C0.788574 31.5302 2.47353 33.2152 4.55204 33.2152H44.2395C46.318 33.2152 48.0029 31.5302 48.0029 29.4517V4.81815C48.0029 2.73965 46.318 1.05469 44.2395 1.05469Z" fill="white" stroke="#D9D9D9" stroke-width="0.713022"/>
<path fill-rule="evenodd" clip-rule="evenodd" d="M23.0683 22.2725V18.1382H25.2021C26.0764 18.1382 26.8145 17.8452 27.4161 17.2674L27.5605 17.1209C28.6595 15.9246 28.5873 14.0609 27.4161 12.9541C26.8305 12.3681 26.0283 12.0507 25.2021 12.067H21.7769V22.2725H23.0683ZM23.0685 16.8849V13.3203H25.2347C25.7 13.3203 26.1413 13.4993 26.4702 13.8249C27.1683 14.5085 27.1843 15.6478 26.5103 16.3558C26.1814 16.7058 25.716 16.9011 25.2347 16.8849H23.0685ZM33.5848 15.8351C33.0313 15.3223 32.2773 15.0619 31.3227 15.0619C30.0954 15.0619 29.1729 15.5176 28.5632 16.421L29.7023 17.1453C30.1194 16.5268 30.689 16.2176 31.411 16.2176C31.8682 16.2176 32.3094 16.3885 32.6543 16.6977C32.9912 16.9907 33.1838 17.4139 33.1838 17.8615V18.1626C32.6864 17.8859 32.0607 17.7394 31.2906 17.7394C30.3922 17.7394 29.6702 17.951 29.1328 18.3824C28.5953 18.8137 28.3226 19.3834 28.3226 20.1077C28.3065 20.7669 28.5873 21.3936 29.0847 21.8167C29.59 22.2725 30.2318 22.5004 30.9858 22.5004C31.8762 22.5004 32.5821 22.1016 33.1196 21.304H33.1757V22.2725H34.4111V17.9673C34.4111 17.0639 34.1383 16.3478 33.5848 15.8351ZM30.0795 20.9866C29.8148 20.7913 29.6543 20.4739 29.6543 20.1321C29.6543 19.7496 29.8309 19.4322 30.1758 19.1799C30.5288 18.9276 30.9701 18.7974 31.4916 18.7974C32.2137 18.7892 32.7753 18.952 33.1765 19.2775C33.1765 19.831 32.9598 20.3111 32.5346 20.718C32.1495 21.1087 31.628 21.3284 31.0825 21.3284C30.7214 21.3366 30.3684 21.2145 30.0795 20.9866ZM37.1866 25.3406L41.5023 15.2898H40.0985L38.1011 20.303H38.077L36.0315 15.2898H34.6277L37.4593 21.8248L35.855 25.3406H37.1866Z" fill="#3C4043"/>
<path d="M18.6079 17.2507C18.6079 16.8519 18.5758 16.4531 18.5117 16.0625H13.0649V18.3168H16.1854C16.057 19.0412 15.6399 19.6923 15.0302 20.0991V21.5641H16.8913C17.9822 20.5468 18.6079 19.0412 18.6079 17.2507Z" fill="#4285F4"/>
<path d="M13.0657 22.9827C14.6219 22.9827 15.9375 22.4618 16.8921 21.5666L15.0311 20.1017C14.5097 20.4598 13.8439 20.6632 13.0657 20.6632C11.5577 20.6632 10.2822 19.6296 9.82496 18.2461H7.90771V19.7598C8.88642 21.7375 10.8838 22.9827 13.0657 22.9827Z" fill="#246D15"/>
<path d="M9.82778 18.244C9.58712 17.5197 9.58712 16.7303 9.82778 15.9978V14.4922H7.91033C7.08393 16.1443 7.08393 18.0975 7.91033 19.7495L9.82778 18.244Z" fill="#FBBC04"/>
<path d="M13.0657 13.5854C13.892 13.5691 14.6861 13.8865 15.2797 14.4643L16.9322 12.7878C15.8813 11.7949 14.5016 11.2497 13.0657 11.266C10.8838 11.266 8.88642 12.5193 7.90771 14.4969L9.82496 16.0106C10.2822 14.619 11.5577 13.5854 13.0657 13.5854Z" fill="#EA4335"/>
</svg>
