<svg width="80" height="91" viewBox="0 0 80 91" fill="none" xmlns="http://www.w3.org/2000/svg">
<path fill-rule="evenodd" clip-rule="evenodd" d="M20.3599 9.6026C5.97832 16.7977 1.30532 19.212 0.955974 19.6272C0.703056 19.9282 0.442234 20.4618 0.37637 20.813C0.187736 21.819 0.433981 29.6552 0.742575 32.4688C3.65991 59.0701 15.2031 78.2974 33.8906 87.6829C36.4087 88.9476 39.3601 90.125 40.0121 90.125C41.602 90.125 48.5261 86.6751 52.5967 83.8547C67.5051 73.5254 76.6672 55.8352 79.2595 32.374C79.5635 29.6232 79.811 21.8071 79.6255 20.8173C79.5591 20.4638 79.2979 19.9282 79.045 19.6272C78.6957 19.212 74.0227 16.7977 59.6411 9.6026C44.1689 1.8619 40.5696 0.125 40.0005 0.125C39.4314 0.125 35.8321 1.8619 20.3599 9.6026ZM25.6439 18.8251C12.0134 25.6463 11.8046 25.7587 11.3941 26.4896C11.004 27.1844 10.9854 27.3444 11.0987 29.015C11.5258 35.3092 13.0307 43.0358 14.9711 48.8962C17.88 57.6819 21.8977 64.4711 27.5185 70.0988C30.8707 73.4553 33.7085 75.593 37.4235 77.561C39.733 78.7843 40.2077 78.808 42.1826 77.7982C45.7779 75.96 49.135 73.4506 52.4825 70.0988C59.1364 63.4367 63.6402 54.9821 66.4949 43.7954C67.6729 39.1792 68.5981 33.4988 68.9023 29.015C69.0156 27.3444 68.997 27.1844 68.6069 26.4896C68.1964 25.7587 67.9876 25.6463 54.3571 18.8251C45.4326 14.3589 40.3381 11.9023 40.0005 11.9023C39.6629 11.9023 34.5684 14.3589 25.6439 18.8251ZM28.0173 23.4239C16.4129 29.2433 16.2982 29.3059 16.3759 29.7863C16.4189 30.0532 16.5411 31.1021 16.6476 32.1172C17.3498 38.8187 19.3426 46.5179 21.9027 52.4199C25.6934 61.1598 31.4624 68.0207 38.5366 72.2025L40.0256 73.0827L41.5234 72.177C50.0357 67.0314 56.28 58.6508 60.0388 47.3281C61.5791 42.6874 62.8634 36.7947 63.3534 32.1172C63.4598 31.1021 63.5821 30.0532 63.6251 29.7863C63.7027 29.3059 63.5902 29.2444 51.9403 23.4143C45.4705 20.1764 40.0781 17.5317 39.9571 17.537C39.8361 17.5423 34.4632 20.1915 28.0173 23.4239Z" fill="url(#paint0_linear_34_1253)"/>
<defs>
<linearGradient id="paint0_linear_34_1253" x1="79.6894" y1="45.125" x2="0.310547" y2="45.125" gradientUnits="userSpaceOnUse">
<stop stop-color="#63D3FB"/>
<stop offset="1" stop-color="#3FBDF2"/>
</linearGradient>
</defs>
</svg>
