<svg width="90" height="91" viewBox="0 0 90 91" fill="none" xmlns="http://www.w3.org/2000/svg">
<path fill-rule="evenodd" clip-rule="evenodd" d="M39.6093 0.390205C21.3147 2.6196 6.17837 15.9825 1.60196 33.9439C0.535504 38.1295 0.297852 40.1673 0.297852 45.1289C0.297852 48.4619 0.380117 50.0638 0.634932 51.6897C3.83971 72.1504 19.692 87.5193 40.052 89.9045C43.167 90.2694 48.669 90.1694 51.6863 89.693C69.4911 86.8819 83.896 73.7656 88.3377 56.3206C89.2471 52.749 89.5672 50.3743 89.6825 46.3486C90.0403 33.8473 85.4256 22.2004 76.5952 13.3177C69.3812 6.06098 60.1702 1.56448 50.0897 0.378196C47.1806 0.0359344 42.4725 0.0413753 39.6093 0.390205ZM42.266 7.53436C41.9582 7.57058 40.9089 7.69217 39.9343 7.80457C38.9596 7.91715 37.0658 8.29056 35.7257 8.63451C22.3849 12.059 12.0872 22.4179 8.69219 35.8291C7.83 39.2349 7.5806 41.3217 7.5806 45.1289C7.5806 48.9362 7.83 51.023 8.69219 54.4288C14.6671 78.0309 41.0593 89.8123 62.4606 78.4306C69.0934 74.9033 74.5891 69.3738 78.0735 62.722C82.5079 54.2567 83.5932 44.612 81.1488 35.3949C77.1906 20.4699 64.5519 9.4973 49.2572 7.70737C46.9892 7.44185 43.7404 7.36154 42.266 7.53436ZM41.0535 13.809C29.1386 15.3473 19.0394 23.7094 15.2385 35.1838C13.9924 38.9457 13.743 40.6037 13.743 45.1289C13.743 48.6088 13.8006 49.4311 14.1623 51.111C15.5494 57.554 18.1483 62.5361 22.4785 67.0529C26.9238 71.6899 32.3571 74.6673 39.0239 76.1196C40.694 76.4835 41.5115 76.5414 44.9709 76.5414C49.4695 76.5414 51.1178 76.2906 54.8575 75.0371C62.9611 72.321 69.7133 66.3042 73.3204 58.5856C76.4388 51.9123 77.1514 44.1082 75.2828 37.0918C73.8004 31.5257 71.2205 27.0622 67.076 22.8932C62.9286 18.7213 58.4664 16.1132 52.9485 14.6359C49.4525 13.7 44.5422 13.3584 41.0535 13.809ZM43.658 21.5328C43.0499 21.8413 42.7126 22.1805 42.4059 22.7922L41.9862 23.6295V34.5631C41.9862 44.2823 42.0203 45.5825 42.2938 46.2698C42.5673 46.9575 43.3043 47.5738 48.952 51.8385C52.4448 54.4759 55.6164 56.7578 55.9999 56.9094C57.318 57.4303 58.9208 56.7439 59.5278 55.3985C59.9755 54.4066 59.9783 53.8715 59.5416 52.904C59.2476 52.2528 58.3729 51.525 53.5764 47.9402L47.9555 43.7393V33.6844C47.9555 23.6302 47.9555 23.6293 47.5358 22.7922C47.084 21.891 45.8937 21.1106 44.9709 21.1106C44.7065 21.1106 44.1158 21.3005 43.658 21.5328Z" fill="white"/>
</svg>
