<svg width="104" height="91" viewBox="0 0 104 91" fill="none" xmlns="http://www.w3.org/2000/svg">
<path fill-rule="evenodd" clip-rule="evenodd" d="M50.3114 0.376245C49.8839 0.534966 49.2136 0.92326 48.8219 1.2393C48.277 1.67903 42.5993 11.3252 24.6325 42.3357C11.7201 64.6227 1.01772 83.2496 0.849473 83.7288C-0.0180468 86.2017 1.6411 89.2734 4.21797 89.9651C4.71286 90.098 21.0857 90.1489 52.4214 90.1146L99.8757 90.063L100.704 89.6215C102.744 88.5336 103.867 85.9114 103.182 83.8371C102.921 83.0459 56.753 3.13714 55.8717 1.95044C54.7514 0.442096 52.1319 -0.299468 50.3114 0.376245ZM31.0085 46.383L10.1252 82.4572L31.0587 82.5083C42.5724 82.5363 61.4121 82.5363 72.9249 82.5083L93.8576 82.4572L72.9751 46.383C61.49 26.5423 52.0476 10.309 51.9924 10.309C51.9372 10.309 42.4945 26.5423 31.0085 46.383ZM36.1761 49.4283C27.5386 64.3427 20.4718 76.592 20.4718 76.649C20.4718 76.7063 34.6561 76.7529 51.9924 76.7529C69.3288 76.7529 83.513 76.7068 83.513 76.6504C83.513 76.4571 52.1046 22.3115 51.9924 22.3115C51.9308 22.3115 44.8133 34.5142 36.1761 49.4283ZM48.9809 48.1311V56.3374H51.9924H55.0039V48.1311V39.9249H51.9924H48.9809V48.1311ZM48.9809 66.1448V69.1471H51.9924H55.0039V66.1448V63.1425H51.9924H48.9809V66.1448Z" fill="url(#paint0_linear_34_1245)"/>
<defs>
<linearGradient id="paint0_linear_34_1245" x1="103.383" y1="45.125" x2="0.617188" y2="45.125" gradientUnits="userSpaceOnUse">
<stop stop-color="#63D3FB"/>
<stop offset="1" stop-color="#3DBBF2"/>
</linearGradient>
</defs>
</svg>
